# Blender v3.6.4 OBJ File: ''
# www.blender.org
mtllib cube2.mtl
o Cube_Cube.001
v -1.370297 -1.011031 0.320404
v -1.370297 0.988969 0.320404
v -0.301919 -1.011031 -1.370327
v -0.301919 0.988969 -1.370327
v 0.320434 -1.011031 1.388781
v 0.320434 0.988969 1.388781
v 1.388811 -1.011031 -0.301950
v 1.388811 0.988969 -0.301950
vt 0.375000 0.000000
vt 0.625000 0.250000
vt 0.375000 0.250000
vt 0.625000 0.500000
vt 0.375000 0.500000
vt 0.625000 0.750000
vt 0.375000 0.750000
vt 0.625000 1.000000
vt 0.375000 1.000000
vt 0.125000 0.500000
vt 0.125000 0.750000
vt 0.875000 0.750000
vt 0.625000 0.000000
vt 0.875000 0.500000
vn -0.8454 0.0000 -0.5342
vn 0.5342 0.0000 -0.8454
vn 0.8454 0.0000 0.5342
vn -0.5342 0.0000 0.8454
vn 0.0000 -1.0000 0.0000
vn 0.0000 1.0000 0.0000
usemtl None
s off
f 1/1/1 4/2/1 3/3/1
f 3/3/2 8/4/2 7/5/2
f 7/5/3 6/6/3 5/7/3
f 5/7/4 2/8/4 1/9/4
f 3/10/5 5/7/5 1/11/5
f 8/4/6 2/12/6 6/6/6
f 1/1/1 2/13/1 4/2/1
f 3/3/2 4/2/2 8/4/2
f 7/5/3 8/4/3 6/6/3
f 5/7/4 6/6/4 2/8/4
f 3/10/5 7/5/5 5/7/5
f 8/4/6 4/14/6 2/12/6
